<svg width="504" height="56" viewBox="0 0 504 56" fill="none" xmlns="http://www.w3.org/2000/svg">
<path d="M40.8144 43.3879V54.631H0.21051V44.4004L23.6555 12.5898H0.21051V1.34668H40.228V11.5237L16.835 43.3879H40.8144ZM23.3368 13.0158L22.4306 14.2412L23.1763 13.2288L23.3368 13.0158Z" fill="black"/>
<path d="M65.8241 54.631H53.1956V1.34668H65.8241V21.4882L81.7554 1.34668H97.368L65.8241 38.6992V54.631Z" fill="black"/>
<path d="M83.248 54.631L71.2061 38.6992H86.0718L98.8065 54.631H83.248Z" fill="#00A0E4"/>
<path d="M151.614 38.5127C151.614 48.2642 144.687 55.6169 130.3 55.6169C120.069 55.6169 112.929 52.1004 106.961 46.0789L113.782 36.4878L114.848 37.6076C117.299 40.1647 122.628 44.428 130.886 44.428C136.428 44.428 138.879 42.0833 138.879 39.7918C138.879 36.968 134.19 35.8483 128.755 34.5703C120.283 32.5454 109.945 29.8278 109.466 17.6785V17.1994V16.7197V16.2401C109.732 7.55465 117.352 0.46756 129.66 0.46756C138.133 0.46756 145.487 3.02522 151.401 8.72698L144.261 18.1051L143.248 17.1457C139.465 13.6824 134.136 11.6575 128.595 11.6575C124.652 11.6575 122.308 13.1496 122.308 15.7073C122.308 18.0514 126.73 19.1175 131.846 20.343C140.531 22.421 151.134 25.2447 151.614 37.5003V37.9805V38.5127V38.5127Z" fill="black"/>
<path d="M198.853 1.34668H184.626L164.005 54.6316H178.338L191.766 16.426L198.481 35.6087L205.14 54.6316H219.42L198.853 1.34668Z" fill="black"/>
<path d="M191.749 54.6316L183.286 41.5299H200.139L191.749 54.6316Z" fill="#00A0E4"/>
<path d="M269.544 1.34668V12.5898H244.447V22.6069H268.958V33.85H244.447V54.631H231.819V1.34668H269.544Z" fill="black"/>
<path d="M281.994 54.631H319.719V43.3879H281.994V54.631ZM281.994 33.85H319.719V22.6069H281.994V33.85ZM281.994 1.34668V12.5898H319.719V1.34668H281.994Z" fill="black"/>
<path d="M376.609 40.2181C376.609 48.2114 371.227 54.6048 361.104 54.6048H332.17V1.26675H360.25C370.375 1.26675 375.596 7.76741 375.596 14.8545C375.596 21.5682 371.387 26.0445 366.378 27.11C372.027 28.0157 376.609 33.5039 376.609 40.2181ZM344.798 21.3552H357.746C360.73 21.3552 362.701 19.5969 362.701 16.8794C362.701 14.1618 360.73 12.3499 357.746 12.3499H344.798V21.3552ZM363.714 38.6192C363.714 35.6356 361.53 33.6638 358.119 33.6638H344.798V43.5215H358.119C360.25 43.5215 363.714 42.882 363.714 38.6192Z" fill="black"/>
<path d="M444.206 27.9891C444.206 43.2283 431.898 55.5912 416.659 55.5912C401.419 55.5912 389.057 43.2283 389.057 27.9891C389.057 12.7494 401.419 0.387634 416.659 0.387634C431.898 0.387623 444.206 12.6963 444.206 27.9891ZM431.525 27.9355C431.525 19.7297 424.865 13.0692 416.659 13.0692C408.453 13.0692 401.792 19.7297 401.792 27.9355C401.792 36.1418 408.453 42.8023 416.659 42.8023C424.865 42.8023 431.525 36.1418 431.525 27.9355Z" fill="black"/>
<path d="M450.003 54.6316L469.399 27.2956L451.229 1.34668H466.254L476.965 17.2254L487.516 1.34668H502.701L465.083 54.6316H450.003Z" fill="black"/>
<path d="M494.62 41.5299H479.788L488.741 54.6316H503.927L494.62 41.5299Z" fill="#00A0E4"/>
</svg>
